<svg width="48" height="14" viewBox="0 0 48 14" fill="none" xmlns="http://www.w3.org/2000/svg">
<path d="M7.53912 9.88211C9.1668 12.8757 12.6477 11.0492 13 8.21371C12.5728 11.5942 10.5604 14 7.73554 12.5L5 10.9315L7.53912 9.88211ZM10.9532 5.29965V5.99419C10.9532 6.81959 10.8254 7.55943 10.5697 8.21371C10.3141 8.86798 9.94614 9.42412 9.46599 9.88211C8.98583 10.3401 8.40901 10.6899 7.73554 10.9315C7.06831 11.1731 6.32001 11.2938 5.49065 11.2938C4.68622 11.2938 3.94728 11.1731 3.27381 10.9315C2.60658 10.6899 2.02664 10.3401 1.53401 9.88211C1.04762 9.42412 0.670351 8.86798 0.402211 8.21371C0.13407 7.55943 0 6.81959 0 5.99419V5.29965C0 4.47425 0.130952 3.73693 0.392857 3.08769C0.660998 2.43341 1.03827 1.87727 1.52466 1.41928C2.01105 0.956252 2.58787 0.603949 3.2551 0.362369C3.92857 0.12079 4.66752 0 5.47194 0C6.3013 0 7.05272 0.12079 7.72619 0.362369C8.39966 0.603949 8.97647 0.956252 9.45663 1.41928C9.93679 1.87727 10.3047 2.43341 10.5604 3.08769C10.8223 3.73693 10.9532 4.47425 10.9532 5.29965ZM9.16667 5.99419V5.28455C9.16667 4.63028 9.08248 4.05149 8.91412 3.5482C8.75198 3.04491 8.5119 2.62214 8.19388 2.27991C7.87585 1.93767 7.48923 1.67847 7.03401 1.50232C6.5788 1.32617 6.05811 1.2381 5.47194 1.2381C4.91695 1.2381 4.41185 1.32617 3.95663 1.50232C3.50765 1.67847 3.12103 1.93767 2.79677 2.27991C2.47251 2.62214 2.22307 3.04491 2.04847 3.5482C1.87387 4.05149 1.78656 4.63028 1.78656 5.28455V5.99419C1.78656 6.6535 1.87387 7.23732 2.04847 7.74565C2.22307 8.24894 2.47251 8.67422 2.79677 9.02149C3.12727 9.36372 3.52012 9.62292 3.97534 9.79907C4.43056 9.97522 4.93566 10.0633 5.49065 10.0633C6.07681 10.0633 6.59751 9.97522 7.05272 9.79907C7.50794 9.62292 7.89144 9.36372 8.20323 9.02149C8.52126 8.67422 8.76134 8.24894 8.92347 7.74565C9.0856 7.23732 9.16667 6.6535 9.16667 5.99419Z" fill="#565656"/>
<path d="M13.3698 9.91003L15.1408 5.33419H15.918L15.7652 6.24422L13.9623 10.8972H13.2042L13.3698 9.91003ZM12.1785 5.33419L13.6884 9.96144L13.7967 10.8972H13.0003L11 5.33419H12.1785ZM17.6126 9.92545L19.0523 5.33419H20.2245L18.2242 10.8972H17.4342L17.6126 9.92545ZM16.09 5.33419L17.8228 9.8329L18.0203 10.8972H17.2686L15.4148 6.23393L15.2619 5.33419H16.09Z" fill="#565656"/>
<path d="M22.7154 5.33419V10.8972H21.5305V5.33419H22.7154ZM21.4413 3.85861C21.4413 3.70437 21.4986 3.57412 21.6133 3.46787C21.7322 3.36161 21.9063 3.30848 22.1357 3.30848C22.3608 3.30848 22.5328 3.36161 22.6517 3.46787C22.7749 3.57412 22.8364 3.70437 22.8364 3.85861C22.8364 4.006 22.7749 4.13282 22.6517 4.23907C22.5328 4.3419 22.3608 4.39332 22.1357 4.39332C21.9063 4.39332 21.7322 4.3419 21.6133 4.23907C21.4986 4.13282 21.4413 4.006 21.4413 3.85861Z" fill="#565656"/>
<path d="M29.7421 10.1157V10.8972H24.7285V10.1157H29.7421ZM29.5573 6.00771L24.996 10.8972H24.2762V10.1979L28.8056 5.33419H29.5573V6.00771ZM29.035 5.33419V6.12082H24.3271V5.33419H29.035Z" fill="#565656"/>
<path d="M35.1443 9.94602V7.08226C35.1443 6.8629 35.0891 6.67266 34.9787 6.51157C34.8725 6.34704 34.7111 6.22022 34.4945 6.13111C34.2779 6.04199 34.0103 5.99743 33.6918 5.99743C33.3945 5.99743 33.1333 6.03856 32.9082 6.12082C32.6874 6.20308 32.5133 6.31105 32.3858 6.44473C32.2627 6.57841 32.2011 6.72237 32.2011 6.87661H31.0226C31.0226 6.67781 31.0863 6.48072 31.2137 6.28535C31.3411 6.08997 31.5237 5.91345 31.7615 5.75578C32.0036 5.59469 32.2924 5.46787 32.6279 5.37532C32.9677 5.27935 33.3457 5.23136 33.7619 5.23136C34.263 5.23136 34.7047 5.29991 35.087 5.43702C35.4734 5.57412 35.775 5.78149 35.9916 6.05913C36.2124 6.33333 36.3228 6.67781 36.3228 7.09254V9.6838C36.3228 9.86889 36.3419 10.066 36.3802 10.2751C36.4226 10.4841 36.4842 10.6641 36.5649 10.8149V10.8972H35.3354C35.2759 10.7875 35.2292 10.6418 35.1952 10.4602C35.1613 10.2751 35.1443 10.1037 35.1443 9.94602ZM35.3481 7.52442L35.3609 8.1928H34.1696C33.8341 8.1928 33.5347 8.21508 33.2714 8.25964C33.008 8.30077 32.7872 8.36418 32.6088 8.44987C32.4304 8.53556 32.2945 8.64353 32.2011 8.77378C32.1077 8.9006 32.061 9.0497 32.061 9.22108C32.061 9.39589 32.1098 9.55527 32.2075 9.69923C32.3052 9.84319 32.4517 9.95801 32.647 10.0437C32.8466 10.126 33.0909 10.1671 33.3796 10.1671C33.7406 10.1671 34.0592 10.1054 34.3352 9.98201C34.6113 9.85861 34.83 9.7078 34.9914 9.52956C35.157 9.35133 35.2462 9.17823 35.259 9.01028L35.7622 9.46787C35.7325 9.61183 35.6518 9.77121 35.5201 9.94602C35.3885 10.1208 35.2122 10.2888 34.9914 10.4499C34.7748 10.6075 34.5157 10.7395 34.2142 10.8458C33.9169 10.9486 33.5814 11 33.2076 11C32.7405 11 32.3306 10.9263 31.9781 10.7789C31.6299 10.6315 31.3581 10.4344 31.1627 10.1877C30.9716 9.93745 30.876 9.6581 30.876 9.34961C30.876 9.05141 30.9482 8.7892 31.0926 8.56298C31.237 8.33333 31.4451 8.1431 31.7169 7.99229C31.9888 7.83805 32.3158 7.72151 32.698 7.64267C33.0802 7.56384 33.5071 7.52442 33.9785 7.52442H35.3481Z" fill="#565656"/>
<path d="M39.3552 6.20823V10.8972H38.1767V5.33419H39.3233L39.3552 6.20823ZM41.5084 5.30334L41.5021 6.18766C41.4044 6.17052 41.311 6.16024 41.2218 6.15681C41.1368 6.14996 41.0391 6.14653 40.9287 6.14653C40.6569 6.14653 40.417 6.18081 40.2089 6.24936C40.0007 6.31791 39.8245 6.41388 39.6801 6.53728C39.5357 6.66067 39.421 6.80805 39.3361 6.97943C39.2554 7.14739 39.2023 7.33248 39.1768 7.5347L38.8456 7.68895C38.8456 7.35304 38.8859 7.0377 38.9666 6.74293C39.0515 6.44816 39.1811 6.18766 39.3552 5.96144C39.5293 5.73179 39.7502 5.55356 40.0177 5.42674C40.2895 5.29649 40.6123 5.23136 40.9861 5.23136C41.071 5.23136 41.1687 5.23993 41.2791 5.25707C41.3895 5.27078 41.466 5.2862 41.5084 5.30334Z" fill="#565656"/>
<path d="M46.8151 9.81748V3H48V10.8972H46.917L46.8151 9.81748ZM42.1773 8.17738V8.06941C42.1773 7.64439 42.241 7.25878 42.3685 6.9126C42.5001 6.56298 42.6849 6.26307 42.9227 6.01285C43.1648 5.76264 43.4514 5.57069 43.7827 5.43702C44.1182 5.29991 44.492 5.23136 44.9039 5.23136C45.3371 5.23136 45.7151 5.29306 46.0379 5.41645C46.3649 5.53642 46.641 5.71294 46.866 5.94602C47.0954 6.17566 47.2759 6.4533 47.4075 6.77892C47.5392 7.10454 47.6305 7.47301 47.6815 7.88432V8.35733C47.6348 8.76521 47.5434 9.13196 47.4075 9.45758C47.2759 9.7832 47.0954 10.0608 46.866 10.2905C46.641 10.5201 46.3649 10.6967 46.0379 10.8201C45.7109 10.94 45.3286 11 44.8912 11C44.4877 11 44.1182 10.9297 43.7827 10.7892C43.4514 10.6487 43.1648 10.4516 42.9227 10.1979C42.6849 9.9443 42.5001 9.6461 42.3685 9.30334C42.241 8.95716 42.1773 8.58183 42.1773 8.17738ZM43.3623 8.06941V8.17738C43.3623 8.45501 43.3962 8.71551 43.4642 8.95887C43.5364 9.20223 43.6468 9.41645 43.7955 9.60154C43.9441 9.78663 44.1331 9.93231 44.3624 10.0386C44.5918 10.1414 44.8657 10.1928 45.1842 10.1928C45.575 10.1928 45.8956 10.126 46.1462 9.99229C46.401 9.85861 46.6049 9.68209 46.7577 9.46272C46.9106 9.24336 47.0296 9.00514 47.1145 8.74807V7.509C47.0635 7.32048 46.9892 7.13882 46.8915 6.96401C46.7981 6.78578 46.6749 6.62811 46.522 6.491C46.3734 6.35047 46.1886 6.23907 45.9678 6.15681C45.7512 6.07455 45.4943 6.03342 45.197 6.03342C44.8742 6.03342 44.596 6.08826 44.3624 6.19794C44.1331 6.3042 43.9441 6.45159 43.7955 6.6401C43.6468 6.82519 43.5364 7.04113 43.4642 7.28792C43.3962 7.53128 43.3623 7.79177 43.3623 8.06941Z" fill="#565656"/>
</svg>
